# xmcd
#
# Track frame offsets: 
#        150
#        17068
#        32746
#        49308
#        62098
#        75726
#        93901
#        109285
#        128093
#        146626
#        164228
#        179741
#        198138
#        219005
#        234705
#
# Disc length: 3379 seconds
#
# Revision: 0
# Processed by: cddbd v1.5.2PL0 Copyright (c) Steve Scherf et al.
# Submitted via: ExactAudioCopy v1.0b3
#
DISCID=d60d310f
DTITLE=Johnny Reid - Fire It Up
DYEAR=2012
DGENRE=Folk/Rock
TTITLE0=Fire It Up
TTITLE1=Walking On Water
TTITLE2=Right Where I Belong
TTITLE3=Yeah It's Alright
TTITLE4=Let's Have A Party
TTITLE5=Dedicated To You
TTITLE6=Dancin' Shoes
TTITLE7=Baby I Know It
TTITLE8=Love of a Lifetime
TTITLE9=What Makes The World Go Around
TTITLE10=You Got Me
TTITLE11=Till We Meet Again
TTITLE12=What Used To Be
TTITLE13=Walking On Water
TTITLE14=I Still Cry For You
EXTD=
EXTT0=
EXTT1=
EXTT2=
EXTT3=
EXTT4=
EXTT5=
EXTT6=
EXTT7=
EXTT8=
EXTT9=
EXTT10=
EXTT11=
EXTT12=
EXTT13=
EXTT14=
PLAYORDER=
